<?xml version="1.0" encoding="utf-8"?>
<svg width="215.64" height="128" viewBox="0 0 215.64 128" fill="none" stroke="none" version="1.1" xmlns:xlink="http://www.w3.org/1999/xlink" xmlns="http://www.w3.org/2000/svg">
  <path id="loap Difference" d="M64 0C28.6537 0 0 28.6538 0 64C0 99.3462 28.6537 128 64 128C93.8489 128 118.925 107.566 126.003 79.9238Q126.101 84.9338 129.096 87.72Q132.192 90.6 137.592 90.6Q141.696 90.6 144.54 88.8Q147.384 87 148.968 84.696L148.968 89.592L167.976 89.592L167.976 77.784L164.808 77.784L164.808 64.464Q164.808 56.328 160.2 52.44Q155.592 48.552 144.864 48.552Q140.616 48.552 136.152 49.128Q131.688 49.704 127.872 50.64L127.872 59.9191C125.767 26.4744 97.9755 0 64 0ZM128 63.8407Q127.936 63.864 127.872 63.888L127.872 59.9191C127.954 61.2162 127.997 62.5238 128 63.8407ZM128 63.8407Q131.044 62.7219 134.676 62.052Q138.384 61.368 141.624 61.368Q145.584 61.368 147.24 62.268Q148.896 63.168 149.112 65.616Q131.306 65.8934 127.218 74.0345C127.733 70.7653 128 67.4139 128 64C128 63.9469 128 63.8938 128 63.8407ZM127.218 74.0345C126.904 76.0297 126.497 77.9943 126.003 79.9238Q126 79.7553 126 79.584Q126 76.4602 127.218 74.0345ZM55.296 89.664L55.296 77.784L58.464 77.784L58.464 45.384L55.296 45.384L55.296 33.576L75.024 33.576L75.024 77.784L78.192 77.784L78.192 89.664L55.296 89.664ZM101.952 90.6Q91.728 90.6 85.968 85.236Q80.208 79.872 80.208 69.576Q80.208 59.28 85.968 53.916Q91.728 48.552 101.952 48.552Q112.32 48.552 118.008 53.988Q123.696 59.424 123.696 69.576Q123.696 79.872 117.936 85.236Q112.176 90.6 101.952 90.6ZM169.992 93.768L173.16 93.768L173.16 61.368L169.992 61.368L169.992 49.56L189.72 49.56L189.72 54.456Q191.52 52.152 194.364 50.352Q197.208 48.552 200.88 48.552Q208.224 48.552 211.932 54.024Q215.64 59.496 215.64 69.576Q215.64 79.656 211.932 85.128Q208.224 90.6 200.88 90.6Q197.208 90.6 194.364 88.8Q191.52 87 189.72 84.696L189.72 93.768L194.688 93.768L194.688 105.576L169.992 105.576L169.992 93.768ZM101.952 77.784Q104.04 77.784 105.084 76.668Q106.128 75.552 106.128 73.176L106.128 65.976Q106.128 63.6 105.084 62.484Q104.04 61.368 101.952 61.368Q99.864 61.368 98.82 62.484Q97.776 63.6 97.776 65.976L97.776 73.176Q97.776 75.552 98.82 76.668Q99.864 77.784 101.952 77.784ZM193.896 77.784Q195.984 77.784 197.028 76.668Q198.072 75.552 198.072 73.176L198.072 65.976Q198.072 63.6 197.028 62.484Q195.984 61.368 193.896 61.368Q191.808 61.368 190.764 62.484Q189.72 63.6 189.72 65.976L189.72 73.176Q189.72 75.552 190.764 76.668Q191.808 77.784 193.896 77.784ZM148.968 72.744Q145.728 72.744 143.964 73.608Q142.2 74.472 142.2 76.488Q142.2 77.712 142.956 78.468Q143.712 79.224 145.08 79.224Q146.952 79.224 147.96 77.64Q148.968 76.056 148.968 73.176L148.968 72.744Z" style="fill:#673AB7;fill-rule:evenodd;mix-blend-mode:normal;" />
</svg>